# xmcd
#
# Track frame offsets:
#	150
#	11873
#	21942
#	36471
#	50343
#	62616
#	77471
#	87439
#	98727
#	112529
#	127102
#	142503
#	151720
#	163493
#	181733
#	193810
#	204641
#	224596
#	239131
#	250485
#	262075
#	276870
#	287458
#	307377
#
# Disc length: 4227 seconds
#
# Revision: 0
# Processed by: cddbd v1.5.2PL0 Copyright (c) Steve Scherf et al.
# Submitted via: EZCDAudioConverter 1.3.4.1
#
DISCID=63108118
DTITLE=Various Artist - Mod Jazz Forever
DYEAR=1900
DGENRE=
TTITLE0=Troy Dodds - The Real Thing
TTITLE1=Floyd White - Finders Keepers
TTITLE2=The Nightbeats - Who's Afraid Of Virginia Woolf (Part 2)
TTITLE3=Reuben Wilson Quartet - Rod Run
TTITLE4=Jesse Davis - Night Bloomin' Jasmin'
TTITLE5=Byrdie Green - Return Of The Prodigal Son
TTITLE6=Little Bob - Look Out Mr. Heartaches
TTITLE7=Tobi Lark - Talkin' About Love
TTITLE8=Dave Hamilton Set - D.H. Boogaloo
TTITLE9=Jack McDuff - Screamin'
TTITLE10=Dave Hamilton Voices - Because I Love You
TTITLE11=Billy Larkin and His Orchestra - Looking
TTITLE12=The Cals - Double Love
TTITLE13=Bocking, Robinson, Morais - Sunshine Superman
TTITLE14=Hank Jacobs - A Message To Regina
TTITLE15=Gus Jenkins - Tricky Too
TTITLE16=Buddy Guy - Fever
TTITLE17=Bobby Jenkins and His Quartet - John Henry
TTITLE18=Clint Stacy - Work Song
TTITLE19=George Stone - My Beat
TTITLE20=Johnny "Hammond" Smith - The In Crowd
TTITLE21=John Hart With Lil' Bob and The Lollipops - Burgher's Beat
TTITLE22=Johnny Lytle Trio - The Village Caller
TTITLE23=Mark Murphy - It's Like Love
EXTD=
EXTT0=
EXTT1=
EXTT2=
EXTT3=
EXTT4=
EXTT5=
EXTT6=
EXTT7=
EXTT8=
EXTT9=
EXTT10=
EXTT11=
EXTT12=
EXTT13=
EXTT14=
EXTT15=
EXTT16=
EXTT17=
EXTT18=
EXTT19=
EXTT20=
EXTT21=
EXTT22=
EXTT23=
PLAYORDER=
